<?xml version="1.0" encoding="UTF-8"?>
<svg xmlns="http://www.w3.org/2000/svg" width="760" height="320" viewBox="0 0 760 320">
<rect width="760" height="320" fill="white"/>
<text x="20" y="22" font-size="14" font-family="monospace">CORE_BOOT p50 vs ordering variables (hand-built SVG)</text>
<g>
<rect x="60" y="50" width="280" height="210" fill="none" stroke="#888"/>
<text x="60" y="42" font-size="13" font-family="monospace">vs datasheet ROB</text>
<text x="170" y="276" font-size="10" font-family="monospace">datasheet ROB</text>
<text x="34" y="155" font-size="10" font-family="monospace" transform="rotate(-90 34 155)">CORE_BOOT ms</text>
<circle cx="68.0" cy="58.0" r="4" fill="#06c"/>
<circle cx="68.0" cy="138.4" r="4" fill="#06c"/>
<circle cx="248.7" cy="105.6" r="4" fill="#06c"/>
<circle cx="248.7" cy="144.1" r="4" fill="#06c"/>
<circle cx="332.0" cy="252.0" r="4" fill="#06c"/>
<line x1="68.0" y1="86.0" x2="332.0" y2="199.1" stroke="#c00" stroke-dasharray="4 3"/>
</g>
<g>
<rect x="440" y="50" width="280" height="210" fill="none" stroke="#888"/>
<text x="440" y="42" font-size="13" font-family="monospace">vs measured DRAM ns</text>
<text x="550" y="276" font-size="10" font-family="monospace">DRAM ns/load</text>
<text x="414" y="155" font-size="10" font-family="monospace" transform="rotate(-90 414 155)">CORE_BOOT ms</text>
<circle cx="556.5" cy="58.0" r="4" fill="#06c"/>
<circle cx="569.7" cy="138.4" r="4" fill="#06c"/>
<circle cx="448.0" cy="105.6" r="4" fill="#06c"/>
<circle cx="712.0" cy="144.1" r="4" fill="#06c"/>
<circle cx="634.9" cy="252.0" r="4" fill="#06c"/>
<line x1="448.0" y1="92.9" x2="712.0" y2="183.4" stroke="#c00" stroke-dasharray="4 3"/>
</g>
</svg>